<mxfile host="app.diagrams.net" modified="2021-05-17T02:43:05.034Z" agent="5.0 (Macintosh; Intel Mac OS X 10_15_6) AppleWebKit/605.1.15 (KHTML, like Gecko) Version/13.1.2 Safari/605.1.15" etag="ZfTWeWpekIHXxfYyRcII" version="14.6.13" type="github">
  <diagram id="C5RBs43oDa-KdzZeNtuy" name="Page-1">
    <mxGraphModel dx="946" dy="662" grid="1" gridSize="10" guides="1" tooltips="1" connect="1" arrows="1" fold="1" page="1" pageScale="1" pageWidth="827" pageHeight="1169" math="0" shadow="0">
      <root>
        <mxCell id="WIyWlLk6GJQsqaUBKTNV-0" />
        <mxCell id="WIyWlLk6GJQsqaUBKTNV-1" parent="WIyWlLk6GJQsqaUBKTNV-0" />
        <mxCell id="6EOPAYRgeeNx-AAn_4lT-0" value="&lt;span lang=&quot;EN-HK&quot; style=&quot;font-size: 12pt ; font-family: &amp;#34;calibri&amp;#34; , sans-serif&quot;&gt;Patient profile module&lt;/span&gt;&lt;span style=&quot;font-size: medium&quot;&gt;&lt;/span&gt;" style="rounded=0;whiteSpace=wrap;html=1;" vertex="1" parent="WIyWlLk6GJQsqaUBKTNV-1">
          <mxGeometry x="330" y="60" width="120" height="60" as="geometry" />
        </mxCell>
        <mxCell id="6EOPAYRgeeNx-AAn_4lT-2" style="edgeStyle=orthogonalEdgeStyle;rounded=0;orthogonalLoop=1;jettySize=auto;html=1;entryX=0;entryY=0.5;entryDx=0;entryDy=0;" edge="1" parent="WIyWlLk6GJQsqaUBKTNV-1" source="6EOPAYRgeeNx-AAn_4lT-1" target="6EOPAYRgeeNx-AAn_4lT-0">
          <mxGeometry relative="1" as="geometry" />
        </mxCell>
        <mxCell id="6EOPAYRgeeNx-AAn_4lT-1" value="&lt;p class=&quot;MsoNormal&quot; style=&quot;margin: 0cm ; font-size: medium ; font-family: &amp;#34;calibri&amp;#34; , sans-serif&quot;&gt;&lt;span lang=&quot;EN-HK&quot;&gt;Patient health data submission sub module&lt;/span&gt;&lt;/p&gt;" style="rounded=0;whiteSpace=wrap;html=1;" vertex="1" parent="WIyWlLk6GJQsqaUBKTNV-1">
          <mxGeometry x="90" y="130" width="120" height="60" as="geometry" />
        </mxCell>
        <mxCell id="6EOPAYRgeeNx-AAn_4lT-4" style="edgeStyle=orthogonalEdgeStyle;rounded=0;orthogonalLoop=1;jettySize=auto;html=1;entryX=0;entryY=1;entryDx=0;entryDy=0;" edge="1" parent="WIyWlLk6GJQsqaUBKTNV-1" source="6EOPAYRgeeNx-AAn_4lT-3" target="6EOPAYRgeeNx-AAn_4lT-0">
          <mxGeometry relative="1" as="geometry" />
        </mxCell>
        <mxCell id="6EOPAYRgeeNx-AAn_4lT-3" value="&lt;p class=&quot;MsoNormal&quot; style=&quot;margin: 0cm ; font-size: medium ; font-family: &amp;#34;calibri&amp;#34; , sans-serif&quot;&gt;&lt;span lang=&quot;EN-HK&quot;&gt;Patient own record enquiry sub module&lt;/span&gt;&lt;/p&gt;" style="rounded=0;whiteSpace=wrap;html=1;" vertex="1" parent="WIyWlLk6GJQsqaUBKTNV-1">
          <mxGeometry x="220" y="230" width="120" height="60" as="geometry" />
        </mxCell>
        <mxCell id="6EOPAYRgeeNx-AAn_4lT-6" style="edgeStyle=orthogonalEdgeStyle;rounded=0;orthogonalLoop=1;jettySize=auto;html=1;entryX=0.5;entryY=1;entryDx=0;entryDy=0;" edge="1" parent="WIyWlLk6GJQsqaUBKTNV-1" source="6EOPAYRgeeNx-AAn_4lT-5" target="6EOPAYRgeeNx-AAn_4lT-0">
          <mxGeometry relative="1" as="geometry" />
        </mxCell>
        <mxCell id="6EOPAYRgeeNx-AAn_4lT-5" value="&lt;span lang=&quot;EN-HK&quot; style=&quot;font-size: 12pt ; font-family: &amp;#34;calibri&amp;#34; , sans-serif&quot;&gt;Health data questionnaire management sub module&lt;/span&gt;&lt;span style=&quot;font-size: medium&quot;&gt;&lt;/span&gt;" style="rounded=0;whiteSpace=wrap;html=1;" vertex="1" parent="WIyWlLk6GJQsqaUBKTNV-1">
          <mxGeometry x="390" y="230" width="180" height="90" as="geometry" />
        </mxCell>
        <mxCell id="6EOPAYRgeeNx-AAn_4lT-8" style="edgeStyle=orthogonalEdgeStyle;rounded=0;orthogonalLoop=1;jettySize=auto;html=1;exitX=0;exitY=0.5;exitDx=0;exitDy=0;entryX=1;entryY=0.5;entryDx=0;entryDy=0;" edge="1" parent="WIyWlLk6GJQsqaUBKTNV-1" source="6EOPAYRgeeNx-AAn_4lT-7" target="6EOPAYRgeeNx-AAn_4lT-0">
          <mxGeometry relative="1" as="geometry" />
        </mxCell>
        <mxCell id="6EOPAYRgeeNx-AAn_4lT-7" value="&lt;p class=&quot;MsoNormal&quot; style=&quot;margin: 0cm ; font-size: medium ; font-family: &amp;#34;calibri&amp;#34; , sans-serif&quot;&gt;&lt;span lang=&quot;EN-HK&quot;&gt;Patient cases checking and monitor sub module&lt;/span&gt;&lt;/p&gt;" style="rounded=0;whiteSpace=wrap;html=1;" vertex="1" parent="WIyWlLk6GJQsqaUBKTNV-1">
          <mxGeometry x="580" y="110" width="160" height="70" as="geometry" />
        </mxCell>
      </root>
    </mxGraphModel>
  </diagram>
</mxfile>
